<?xml version="1.0" standalone="no"?>
<!DOCTYPE svg PUBLIC "-//W3C//DTD SVG 20010904//EN"
 "http://www.w3.org/TR/2001/REC-SVG-20010904/DTD/svg10.dtd">
<svg version="1.0" xmlns="http://www.w3.org/2000/svg"
 width="700.000000pt" height="700.000000pt" viewBox="0 0 700.000000 700.000000"
 preserveAspectRatio="xMidYMid meet">
<metadata>
Created by potrace 1.11, written by Peter Selinger 2001-2013
</metadata>
<g transform="translate(0.000000,700.000000) scale(0.100000,-0.100000)"
fill="#000000" stroke="none">
<path d="M1295 6993 c-527 -71 -957 -387 -1167 -858 -61 -136 -92 -244 -116
-400 -4 -27 -7 -1038 -7 -2245 0 -1718 3 -2209 13 -2260 6 -36 14 -78 17 -94
23 -120 120 -349 201 -473 117 -179 311 -364 484 -462 67 -38 182 -91 247
-114 110 -40 179 -56 315 -76 37 -6 963 -10 2218 -10 2295 0 2219 -1 2409 48
106 28 198 63 296 113 70 36 221 131 235 147 3 4 32 29 64 56 254 214 440 565
485 915 6 46 9 918 9 2230 0 2161 0 2186 -32 2345 -19 99 -84 274 -132 361
-15 27 -33 58 -38 69 -123 225 -384 461 -643 581 -62 29 -207 80 -251 89 -15
3 -38 8 -52 11 -148 33 -160 33 -2355 32 -1193 -1 -2183 -3 -2200 -5z"/>
</g>
</svg>
